# xmcd
# Track frame offsets:
# 150
# 13774
# 25676
# 37089
# 51095
# 64986
# 78244
# 90907
# 105666
# 118466
# 131866
# 145964
# 160706
# 175580
# 187029
# 200420
# 214790
# 228410
# 243106
# 255634
# 270028
# 282749
# 295365
# 309749
# 321733
#
# Disc length: 4461 seconds
# Revision: 0
# Processed by: cddbd v1.5.1PL2 Copyright (c) Steve Scherf et al.
# Submitted via: VisiTrax 2.10.0.248 - For more info visit www.synapsa.com
#
DISCID=74116b19
DTITLE=Nat King Cole - The Voice of Nat King Cole CD2
DYEAR=2006
DGENRE=
TTITLE0=(Get Your Kicks On) Route 66
TTITLE1=Nature Boy
TTITLE2=Makin' Whoopee
TTITLE3=Nat Meets June
TTITLE4=A Portrait Of Jennie
TTITLE5=My Mother Told Me
TTITLE6=Those Things Money Can't Buy
TTITLE7=Lush Life
TTITLE8=Dream a Little Dream of Me
TTITLE9=Calypso Blues
TTITLE10='Tis Autumn
TTITLE11=Land of Love
TTITLE12=My First and My Last Love
TTITLE13=Orange Colored Sky
TTITLE14=Baby Won't You Say You Love Me
TTITLE15=Too Young
TTITLE16=I Almost Lost My Mind
TTITLE17=Mona Lisa
TTITLE18=What Does It Take
TTITLE19=The Ruby and The Pearl
TTITLE20=I'm Hurtin'
TTITLE21=I'll never Say "Never Again" Again
TTITLE22=Time Out for Tears
TTITLE23=Walkin' My Baby Back Home
TTITLE24=Somewhere Along The Way
EXTD=MCPS \n2006\nDEL 800112
EXTT0=
EXTT1=
EXTT2=
EXTT3=
EXTT4=
EXTT5=
EXTT6=
EXTT7=
EXTT8=
EXTT9=
EXTT10=
EXTT11=
EXTT12=
EXTT13=
EXTT14=
EXTT15=
EXTT16=
EXTT17=
EXTT18=
EXTT19=
EXTT20=
EXTT21=
EXTT22=
EXTT23=
EXTT24=
PLAYORDER=
